<mxfile host="app.diagrams.net" modified="2023-10-07T05:08:57.871Z" agent="Mozilla/5.0 (Windows NT 10.0; Win64; x64) AppleWebKit/537.36 (KHTML, like Gecko) Chrome/115.0.0.0 Safari/537.36 Edg/115.0.1901.203" version="22.0.4" etag="IOcKNSmOeYf2NNTB7mSd" type="github">
  <diagram name="Page-1" id="0seL5g3YsMx6Y434ohPb">
    <mxGraphModel>
      <root>
        <mxCell id="0" />
        <mxCell id="1" parent="0" />
      </root>
    </mxGraphModel>
  </diagram>
</mxfile>
